<svg width="100%" height="100%" viewBox="0 0 2669 2343" version="1.1" xmlns="http://www.w3.org/2000/svg" xmlns:xlink="http://www.w3.org/1999/xlink" xml:space="preserve" xmlns:serif="http://www.serif.com/" style="fill-rule:evenodd;clip-rule:evenodd;stroke-linejoin:round;stroke-miterlimit:2;"><path d="M1952.59,1628.58c-0.05,81.247 -0.021,158.328 -0.187,235.408c-0.054,25.039 -2.378,27.555 -27.441,27.59c-143.744,0.197 -287.49,-0.06 -431.231,0.541c-18.333,0.076 -24.102,-6.535 -24.036,-24.332c0.427,-114.573 0.073,-229.148 -0.004,-343.722c-0.016,-22.85 -0.181,-45.703 0.187,-68.546c0.172,-10.678 -2.767,-17.551 -14.911,-17.538c-81.246,0.089 -162.492,0.122 -243.738,0.047c-9.924,-0.009 -13.516,5.161 -13.494,14.271c0.019,7.636 -0.254,15.274 -0.252,22.911c0.026,129.856 -0.332,259.715 0.535,389.566c0.139,20.711 -5.49,27.632 -26.893,27.504c-141.656,-0.848 -283.32,-0.406 -424.982,-0.471c-34.945,-0.017 -37.406,-2.6 -37.41,-38.286c-0.029,-224.992 -0.018,-449.984 -0.02,-674.976c-0,-11.01 0,-22.02 0,-32.407c-11.937,-4.453 -15.479,3.972 -20.525,8.963c-30.604,30.275 -60.52,61.269 -91.74,90.892c-39.645,37.616 -95.715,32.443 -122.047,-10.193c-17.215,-27.873 -15.793,-56.928 7.283,-84.816c29.258,-35.36 64.979,-64.484 97.978,-96.188c104.126,-100.042 209.177,-199.119 313.827,-298.616c130.307,-123.891 260.279,-248.136 391.036,-371.551c37.293,-35.199 63.766,-33.998 101.108,2.013c69.463,66.987 138.306,134.615 207.717,201.657c10.688,10.323 12.401,22.697 12.425,36.09c0.089,49.303 0.597,98.613 -0.164,147.904c-0.254,16.486 5.98,22.467 21.894,21.819c16.634,-0.677 33.324,0.081 49.989,0.109c33.781,0.056 33.886,0.027 33.948,-33.02c0.12,-63.885 0.033,-127.771 0.214,-191.656c0.036,-12.412 -1.601,-25.368 4.539,-36.797c10.833,-20.16 28.376,-29.756 51.147,-29.767c34.721,-0.018 69.447,-0.284 104.161,0.238c35.314,0.531 55.732,20.672 55.848,55.766c0.338,102.773 0.473,205.549 -0.14,308.319c-0.112,18.798 5.498,33.053 18.923,46.145c77.528,75.613 154.934,151.36 231.624,227.821c43.427,43.297 31.129,105.787 -24.533,125.831c-32.525,11.712 -61.563,2.548 -85.805,-21.476c-29.093,-28.831 -57.78,-58.07 -86.782,-86.994c-6.228,-6.21 -11.361,-14.272 -26.973,-15.646c-2.847,162.258 -0.032,323.951 -1.075,485.593Zm-316.905,-77.083c-0.059,47.216 0.184,92.353 -0.337,137.481c-0.184,15.895 5.831,22.401 22.17,21.961c34.002,-0.915 68.053,-1.063 102.058,-0.322c16.015,0.349 20.169,-6.595 20.089,-21.245c-0.42,-77.073 -0.515,-154.151 0.053,-231.222c0.117,-15.837 -6.373,-20.53 -21.044,-20.306c-34.015,0.521 -68.068,0.847 -102.06,-0.221c-17.073,-0.537 -21.614,6.647 -21.219,22.222c0.757,29.839 0.265,59.71 0.29,91.652Zm-739.364,158.891c38.703,0.257 75.487,-0.077 112.265,0.31c14.368,0.151 21.385,-4.111 21.264,-20.183c-0.587,-77.728 -0.528,-155.465 -0.023,-233.194c0.094,-14.555 -5.35,-19.759 -19.456,-19.574c-35.39,0.465 -70.798,0.587 -106.181,-0.084c-14.827,-0.282 -19.149,6.087 -19.073,19.948c0.426,77.036 0.227,154.076 0.469,231.113c0.025,8.021 -1.293,17.22 10.735,21.664Zm290.287,-687.684c30.685,15.915 61.253,13.988 91.888,6.234c9.069,-2.296 15.765,-9.578 19.077,-18.101c11.236,-28.906 12.312,-59.364 -0.963,-86.707c-13.65,-28.117 -43.188,-18.759 -67.289,-19.427c-19.696,-0.546 -42.849,-0.207 -49.971,21.263c-10.463,31.541 -14.702,64.944 7.258,96.738Zm69.833,68.816c-14.382,0.072 -26.832,-0.099 -39.261,0.339c-24.714,0.871 -38.98,12.488 -42.774,36.527c-3.02,19.136 -3.002,38.706 -0.069,57.833c3.215,20.963 17.444,32.67 38.525,33.271c17.266,0.492 34.557,0.158 51.837,0.146c20.234,-0.015 33.472,-11.21 37.455,-29.548c4.674,-21.516 4.932,-44.114 -0.235,-65.739c-5.543,-23.205 -18.155,-31.648 -45.478,-32.829Zm224.566,117.317c17.933,-22.135 15.369,-46.906 13.163,-70.726c-3.283,-35.441 -17.016,-46.553 -52.85,-46.624c-12.459,-0.025 -24.953,-0.354 -37.371,0.42c-24.44,1.525 -38.529,15.516 -39.5,39.503c-0.643,15.892 -0.614,31.867 0.207,47.748c0.784,15.172 5.616,31.565 20.852,35.395c31.317,7.872 63.636,12.256 95.499,-5.716Zm-21.366,-177.532c25.171,-7.315 35.036,-23.301 33.551,-47.351c-0.853,-13.834 -0.374,-27.755 -1.354,-41.575c-1.547,-21.821 -15.265,-36.27 -37.016,-37.775c-15.869,-1.099 -31.976,-1.128 -47.816,0.233c-25.507,2.19 -40.991,16.098 -42.325,37.832c-1.06,17.275 -1.067,34.725 0.037,51.996c1.484,23.215 15.514,36.424 39.214,37.327c17.976,0.685 36.01,-0.151 55.709,-0.687Zm-77.857,-852.391c-86.108,-6.379 -167.256,2.594 -247.774,18.142c-123.541,23.856 -240.633,65.998 -350.461,127.51c-141.237,79.103 -260.417,183.825 -358.477,312.475c-113.811,149.315 -189.503,316.078 -224.926,500.505c-25.252,131.478 -24.236,263.402 -0.319,395.048c5.691,31.324 13.512,62.265 20.566,93.334c7.721,34.002 -0.957,45.582 -35.079,45.654c-38.887,0.082 -77.783,-0.637 -116.659,0.018c-14.888,0.251 -22.893,-4.669 -26.495,-19.611c-18.525,-76.843 -33.299,-154.008 -38.549,-233.291c-5.661,-85.514 -5.374,-170.762 5.924,-255.358c17.619,-131.921 54.37,-258.709 111.265,-379.515c80.736,-171.428 193.161,-319.437 333.709,-445.351c128.42,-115.05 274.46,-202.144 437.249,-260.852c121.619,-43.861 246.572,-69.196 375.615,-75.741c210.118,-10.657 412.261,23.584 603.652,111.484c252.706,116.06 453.99,291.691 600.43,529.005c89.255,144.64 148.304,301.076 178.611,467.9c19.928,109.692 22.675,220.44 11.564,331.735c-6.768,67.8 -18.287,134.394 -34.374,200.495c-5.407,22.212 -15.504,30.626 -38.786,29.431c-37.398,-1.921 -74.973,-0.166 -112.468,-0.509c-29.731,-0.271 -38.559,-12.05 -30.936,-41.14c28.403,-108.388 46.448,-218.194 42.707,-330.607c-4.211,-126.5 -31.9,-248.147 -76.812,-366.365c-73.952,-194.662 -193.232,-356.835 -351.373,-490.709c-144.179,-122.054 -309.92,-201.508 -494.266,-242.091c-60.403,-13.298 -121.588,-20.947 -183.538,-21.596Zm131.793,1938.11c-404.798,0.23 -805.43,0.472 -1206.06,0.686c-56.817,0.03 -102.359,-38.611 -112.652,-94.694c-2.144,-11.682 2.711,-17.449 12.972,-19.367c6.736,-1.26 13.83,-0.786 20.764,-0.786c731.832,-0.02 1463.66,-0.012 2195.5,-0c7.637,-0 15.302,-0.328 22.907,0.187c20.221,1.371 27.796,11.895 20.299,30.581c-18.526,46.175 -42.541,84.395 -116.356,84.021c-279.117,-1.411 -558.245,-0.605 -837.369,-0.628Zm320.829,224.379c-107.59,0 -211.055,1.867 -314.428,-0.429c-158.897,-3.528 -317.745,3.157 -476.585,0.23c-171.425,-3.16 -342.848,-1.099 -514.27,-1.736c-31.929,-0.119 -60.163,-7.958 -85.446,-27.051c-10.703,-8.083 -19.402,-17.687 -23.935,-30.706c-9.657,-27.733 6.327,-53.343 35.587,-54.281c33.976,-1.089 68.01,-0.374 102.019,-0.382c544.191,-0.126 1088.38,-0.248 1632.57,-0.33c14.499,-0.002 29.25,-1.279 41.44,9.607c21.951,19.602 19.904,53.731 -5.906,73.983c-21.749,17.065 -47.242,25.833 -74.767,28.69c-40.196,4.171 -80.39,1.032 -120.612,0.729c-65.216,-0.49 -130.446,1.014 -195.67,1.676Zm-1658.27,-560.509c120.754,-0.123 237.362,-0.205 353.971,-0.221c8.322,-0.001 16.672,0.14 24.962,0.803c27.31,2.185 47.663,21.157 50.527,46.756c2.683,23.975 -14.498,50.514 -37.912,58.558c-11.296,3.88 -22.92,4.965 -34.836,4.956c-117.304,-0.086 -234.608,0.08 -351.911,-0.024c-42.144,-0.037 -71.445,-22.533 -82.548,-62.641c-6.87,-24.82 6.393,-45.004 31.969,-47.15c15.182,-1.274 30.514,-0.752 45.778,-1.037Zm2372.73,9.582c24.993,32.474 4.737,82.17 -36.302,96.099c-9.793,3.324 -19.966,5.261 -30.613,5.246c-120.826,-0.177 -241.651,0.013 -362.476,-0.129c-31.941,-0.038 -51.621,-12.575 -60.967,-37.629c-13.515,-36.226 8.232,-71.173 46.757,-72.138c55.521,-1.392 111.09,-0.952 166.639,-1.053c78.467,-0.144 156.935,-0.1 235.402,-0.056c14.556,0.008 29.407,-0.866 41.56,9.66Zm-2115.83,-254.564c-11.732,-20.593 -5.955,-36.543 6.354,-50.18c11.146,-12.349 25.658,-19.92 42.891,-14.445c19.337,6.144 31.695,19.901 35.476,39.97c3.399,18.046 -6.407,30.837 -20.075,40.418c-14.102,9.885 -29.672,11.207 -45.149,2.656c-7.981,-4.41 -14.451,-10.74 -19.497,-18.419Zm1789.27,-46.688c16.258,29.293 8.518,55.711 -16.91,66.913c-23.351,10.287 -53.871,-2.609 -61.889,-26.15c-8.079,-23.721 7.409,-51.321 32.98,-58.385c19.505,-5.388 33.126,5.031 45.819,17.622Zm-865.221,185.649c-1.823,18.509 -11.19,27.736 -25.786,27.348c-12.343,-0.327 -21.526,-9.375 -24.866,-21.64c-3.349,-12.298 3.15,-21.42 13.153,-27.613c14.756,-9.136 30.213,0.12 37.499,21.905Z"/></svg>