<svg width="100%" height="100%" viewBox="0 0 2552 682" fill="currentColor" version="1.1" xmlns="http://www.w3.org/2000/svg" xmlns:xlink="http://www.w3.org/1999/xlink" xml:space="preserve" xmlns:serif="http://www.serif.com/" style="fill-rule:evenodd;clip-rule:evenodd;stroke-linejoin:round;stroke-miterlimit:2;"><path d="M568.34,474.03c-0.015,23.648 -0.007,46.084 -0.055,68.52c-0.016,7.287 -0.692,8.02 -7.987,8.03c-41.84,0.058 -83.68,-0.017 -125.518,0.157c-5.336,0.023 -7.016,-1.902 -6.996,-7.082c0.124,-33.348 0.021,-66.698 -0.002,-100.047c-0.004,-6.65 -0.052,-13.302 0.055,-19.951c0.05,-3.108 -0.805,-5.109 -4.34,-5.105c-23.648,0.026 -47.297,0.036 -70.945,0.014c-2.888,-0.003 -3.934,1.502 -3.927,4.154c0.005,2.222 -0.074,4.445 -0.074,6.668c0.008,37.797 -0.096,75.595 0.156,113.391c0.04,6.028 -1.598,8.043 -7.828,8.005c-41.232,-0.246 -82.465,-0.118 -123.699,-0.137c-10.171,-0.005 -10.887,-0.757 -10.889,-11.143c-0.008,-65.489 -0.005,-130.977 -0.005,-196.465c-0.001,-3.205 -0,-6.409 -0,-9.433c-3.475,-1.296 -4.506,1.156 -5.975,2.609c-8.908,8.812 -17.615,17.834 -26.702,26.456c-11.54,10.949 -27.86,9.443 -35.524,-2.967c-5.011,-8.113 -4.597,-16.57 2.119,-24.687c8.516,-10.292 18.914,-18.769 28.519,-27.998c30.307,-29.118 60.885,-57.957 91.345,-86.917c37.928,-36.061 75.759,-72.225 113.818,-108.147c10.855,-10.246 18.561,-9.896 29.43,0.586c20.218,19.497 40.256,39.182 60.46,58.696c3.111,3.004 3.609,6.606 3.616,10.504c0.026,14.351 0.174,28.704 -0.047,43.051c-0.074,4.798 1.74,6.539 6.372,6.351c4.842,-0.197 9.7,0.023 14.551,0.031c9.832,0.016 9.863,0.008 9.881,-9.611c0.035,-18.595 0.009,-37.19 0.062,-55.785c0.01,-3.613 -0.466,-7.384 1.321,-10.71c3.153,-5.868 8.26,-8.661 14.887,-8.665c10.107,-0.005 20.214,-0.082 30.318,0.07c10.279,0.154 16.222,6.017 16.256,16.231c0.098,29.914 0.138,59.829 -0.041,89.742c-0.032,5.472 1.601,9.621 5.508,13.432c22.566,22.008 45.097,44.056 67.419,66.311c12.64,12.603 9.06,30.792 -7.141,36.626c-9.467,3.409 -17.919,0.741 -24.975,-6.251c-8.468,-8.392 -16.818,-16.903 -25.26,-25.321c-1.812,-1.808 -3.307,-4.154 -7.851,-4.554c-0.828,47.228 -0.009,94.292 -0.312,141.341Zm-92.242,-22.437c-0.017,13.743 0.054,26.881 -0.098,40.016c-0.053,4.627 1.697,6.521 6.453,6.393c9.897,-0.267 19.808,-0.31 29.706,-0.094c4.661,0.101 5.871,-1.919 5.847,-6.184c-0.122,-22.433 -0.15,-44.868 0.016,-67.301c0.034,-4.61 -1.855,-5.976 -6.125,-5.911c-9.901,0.152 -19.813,0.247 -29.707,-0.064c-4.97,-0.156 -6.291,1.935 -6.176,6.468c0.22,8.685 0.077,17.38 0.084,26.677Zm-215.206,46.248c11.265,0.075 21.972,-0.022 32.677,0.091c4.182,0.044 6.225,-1.197 6.189,-5.875c-0.17,-22.624 -0.153,-45.251 -0.006,-67.876c0.027,-4.236 -1.558,-5.751 -5.663,-5.697c-10.301,0.135 -20.607,0.171 -30.906,-0.024c-4.316,-0.082 -5.574,1.771 -5.552,5.806c0.124,22.423 0.066,44.846 0.137,67.27c0.007,2.334 -0.377,5.012 3.124,6.305Zm84.494,-200.163c8.931,4.632 17.829,4.072 26.745,1.814c2.64,-0.668 4.589,-2.788 5.553,-5.268c3.271,-8.414 3.584,-17.279 -0.28,-25.238c-3.973,-8.184 -12.571,-5.46 -19.586,-5.655c-5.733,-0.158 -12.472,-0.06 -14.545,6.19c-3.045,9.18 -4.279,18.903 2.113,28.157Zm20.326,20.03c-4.186,0.021 -7.81,-0.029 -11.428,0.099c-7.193,0.253 -11.345,3.635 -12.45,10.632c-0.879,5.569 -0.873,11.266 -0.02,16.833c0.936,6.102 5.078,9.509 11.214,9.684c5.025,0.143 10.058,0.046 15.088,0.043c5.889,-0.005 9.743,-3.263 10.902,-8.601c1.36,-6.262 1.435,-12.84 -0.069,-19.135c-1.613,-6.753 -5.284,-9.211 -13.237,-9.555Zm65.364,34.148c5.22,-6.443 4.474,-13.653 3.831,-20.587c-0.955,-10.315 -4.952,-13.55 -15.382,-13.571c-3.627,-0.007 -7.264,-0.103 -10.878,0.123c-7.114,0.444 -11.214,4.516 -11.497,11.498c-0.187,4.626 -0.179,9.275 0.06,13.898c0.228,4.416 1.635,9.187 6.07,10.302c9.115,2.291 18.522,3.568 27.796,-1.663Zm-6.219,-51.675c7.327,-2.129 10.198,-6.782 9.766,-13.782c-0.248,-4.027 -0.109,-8.078 -0.394,-12.101c-0.45,-6.352 -4.443,-10.557 -10.774,-10.995c-4.619,-0.32 -9.308,-0.329 -13.918,0.067c-7.425,0.638 -11.931,4.686 -12.32,11.012c-0.308,5.029 -0.31,10.108 0.011,15.135c0.432,6.757 4.516,10.602 11.414,10.864c5.233,0.2 10.482,-0.044 16.215,-0.2Zm-22.661,-248.104c-25.064,-1.857 -48.683,0.755 -72.12,5.281c-35.959,6.943 -70.04,19.209 -102.008,37.114c-41.11,23.024 -75.799,53.505 -104.342,90.951c-33.127,43.461 -55.158,92.001 -65.468,145.682c-7.351,38.269 -7.055,76.668 -0.093,114.986c1.656,9.117 3.932,18.123 5.986,27.167c2.247,9.896 -0.279,13.267 -10.211,13.288c-11.319,0.024 -22.64,-0.185 -33.955,0.005c-4.334,0.073 -6.664,-1.359 -7.712,-5.708c-5.392,-22.366 -9.693,-44.827 -11.221,-67.904c-1.648,-24.89 -1.564,-49.703 1.724,-74.326c5.129,-38.399 15.826,-75.302 32.386,-110.465c23.5,-49.898 56.223,-92.978 97.132,-129.628c37.38,-33.488 79.888,-58.838 127.27,-75.926c35.4,-12.767 71.77,-20.141 109.33,-22.046c61.159,-3.102 119.996,6.865 175.704,32.45c73.555,33.781 132.143,84.902 174.767,153.976c25.979,42.101 43.167,87.634 51.988,136.192c5.8,31.928 6.6,64.163 3.366,96.558c-1.97,19.734 -5.323,39.117 -10.005,58.357c-1.574,6.466 -4.513,8.915 -11.29,8.567c-10.885,-0.559 -21.822,-0.049 -32.736,-0.148c-8.653,-0.079 -11.223,-3.508 -9.004,-11.975c8.267,-31.548 13.52,-63.509 12.43,-96.23c-1.225,-36.82 -9.285,-72.227 -22.357,-106.637c-21.525,-56.66 -56.244,-103.864 -102.274,-142.83c-41.966,-35.526 -90.208,-58.653 -143.865,-70.465c-17.582,-3.871 -35.391,-6.097 -53.422,-6.286Zm38.36,564.123c-117.824,0.067 -234.435,0.138 -351.046,0.2c-16.538,0.009 -29.794,-11.238 -32.79,-27.562c-0.624,-3.401 0.789,-5.079 3.776,-5.638c1.96,-0.366 4.025,-0.228 6.043,-0.228c213.014,-0.006 426.027,-0.004 639.041,-0c2.223,-0 4.454,-0.096 6.668,0.054c5.885,0.399 8.09,3.462 5.908,8.901c-5.392,13.441 -12.382,24.565 -33.868,24.456c-81.242,-0.411 -162.487,-0.176 -243.732,-0.183Zm93.384,65.31c-31.316,0 -61.432,0.544 -91.521,-0.125c-46.249,-1.027 -92.485,0.919 -138.719,0.067c-49.896,-0.919 -99.792,-0.32 -149.688,-0.505c-9.293,-0.035 -17.511,-2.316 -24.87,-7.874c-3.116,-2.352 -5.648,-5.148 -6.967,-8.937c-2.811,-8.072 1.842,-15.527 10.358,-15.8c9.89,-0.317 19.796,-0.109 29.695,-0.111c158.397,-0.037 316.794,-0.072 475.191,-0.096c4.22,-0.001 8.514,-0.372 12.062,2.796c6.389,5.706 5.793,15.64 -1.719,21.534c-6.331,4.968 -13.751,7.52 -21.762,8.351c-11.7,1.214 -23.399,0.301 -35.107,0.213c-18.982,-0.143 -37.969,0.295 -56.953,0.487Zm-482.67,-163.147c35.148,-0.035 69.089,-0.059 103.03,-0.064c2.423,-0 4.853,0.041 7.266,0.234c7.949,0.636 13.873,6.158 14.707,13.609c0.781,6.978 -4.22,14.703 -11.035,17.044c-3.288,1.13 -6.672,1.446 -10.14,1.443c-34.143,-0.025 -68.287,0.023 -102.43,-0.007c-12.267,-0.011 -20.796,-6.559 -24.027,-18.233c-2,-7.224 1.86,-13.099 9.305,-13.724c4.419,-0.37 8.881,-0.219 13.324,-0.302Zm690.629,2.789c7.275,9.453 1.379,23.918 -10.566,27.972c-2.851,0.968 -5.812,1.531 -8.911,1.527c-35.168,-0.052 -70.337,0.004 -105.505,-0.038c-9.297,-0.011 -15.026,-3.66 -17.746,-10.952c-3.934,-10.545 2.396,-20.716 13.61,-20.998c16.16,-0.405 32.335,-0.277 48.503,-0.306c22.839,-0.042 45.679,-0.029 68.518,-0.016c4.237,0.002 8.56,-0.252 12.097,2.811Zm-615.853,-74.095c-3.415,-5.994 -1.734,-10.637 1.849,-14.606c3.244,-3.594 7.468,-5.798 12.484,-4.204c5.629,1.788 9.226,5.792 10.326,11.634c0.99,5.252 -1.865,8.975 -5.843,11.764c-4.104,2.877 -8.637,3.262 -13.141,0.773c-2.323,-1.283 -4.207,-3.126 -5.675,-5.361Zm520.799,-13.589c4.733,8.526 2.48,16.215 -4.921,19.476c-6.797,2.994 -15.681,-0.76 -18.014,-7.612c-2.352,-6.904 2.156,-14.938 9.599,-16.994c5.677,-1.568 9.642,1.465 13.336,5.13Zm-251.839,54.036c-0.53,5.387 -3.257,8.073 -7.505,7.96c-3.593,-0.095 -6.266,-2.729 -7.238,-6.299c-0.975,-3.579 0.917,-6.234 3.829,-8.037c4.295,-2.659 8.794,0.035 10.914,6.376Z" style="fill:#fff;"/><g transform="matrix(25.0321,0,0,31.4597,-7659.69,-12989.9)"><g transform="matrix(12,0,0,12,339.927,422.005)"><path d="M0.083,-0l0,-0.75l0.334,0c0.045,0 0.084,0.017 0.117,0.049c0.033,0.033 0.049,0.073 0.049,0.118l-0,0.083c-0,0.045 -0.016,0.084 -0.049,0.117c-0.033,0.033 -0.072,0.05 -0.117,0.05l-0.167,-0l0,0.333l-0.167,-0Zm0.167,-0.417l0.083,-0c0.023,-0 0.043,-0.008 0.059,-0.025c0.017,-0.016 0.025,-0.035 0.025,-0.058l-0,-0.083c-0,-0.023 -0.008,-0.043 -0.025,-0.059c-0.016,-0.017 -0.036,-0.025 -0.059,-0.025l-0.083,0l0,0.25Z" style="fill:#fff;fill-rule:nonzero;"/></g><g transform="matrix(12,0,0,12,347.931,422.005)"><path d="M0.083,-0.667l0,-0.083l0.167,0l0,0.083l-0.167,0Zm0,0.667l0,-0.583l0.167,0l0,0.583l-0.167,-0Z" style="fill:#fff;fill-rule:nonzero;"/></g><g transform="matrix(12,0,0,12,351.927,422.005)"><path d="M0.083,-0l0,-0.125c0,-0.049 0.014,-0.088 0.042,-0.115c0.028,-0.028 0.07,-0.045 0.125,-0.052c-0.055,-0.006 -0.097,-0.023 -0.125,-0.051c-0.028,-0.028 -0.042,-0.066 -0.042,-0.115l0,-0.125l0.167,0l0,0.166c0,0.023 0.008,0.043 0.025,0.059c0.016,0.017 0.035,0.025 0.058,0.025c0.023,-0 0.043,-0.008 0.059,-0.025c0.017,-0.016 0.025,-0.036 0.025,-0.059l-0,-0.166l0.166,0l-0,0.125c-0,0.049 -0.014,0.087 -0.042,0.115c-0.027,0.028 -0.069,0.045 -0.124,0.051c0.055,0.007 0.097,0.024 0.124,0.052c0.028,0.028 0.042,0.066 0.042,0.115l-0,0.125l-0.166,-0l-0,-0.167c-0,-0.023 -0.008,-0.042 -0.025,-0.059c-0.016,-0.016 -0.036,-0.024 -0.059,-0.024c-0.023,-0 -0.042,0.008 -0.058,0.024c-0.017,0.017 -0.025,0.036 -0.025,0.059l0,0.167l-0.167,-0Z" style="fill:#fff;fill-rule:nonzero;"/></g><g transform="matrix(12,0,0,12,359.931,422.005)"><path d="M0.583,-0.25l-0.333,0l0,0.083c0,0.023 0.008,0.042 0.025,0.059c0.016,0.017 0.035,0.025 0.058,0.025l0.084,-0c0.055,-0 0.083,-0.028 0.083,-0.084l0.083,-0c-0.013,0.111 -0.068,0.167 -0.166,0.167l-0.167,-0c-0.045,-0 -0.084,-0.016 -0.117,-0.049c-0.033,-0.033 -0.05,-0.072 -0.05,-0.118l0,-0.25c0,-0.045 0.017,-0.084 0.05,-0.117c0.033,-0.033 0.072,-0.049 0.117,-0.049l0.167,0c0.045,0 0.084,0.016 0.117,0.049c0.033,0.033 0.049,0.072 0.049,0.117l0,0.167Zm-0.333,-0.083l0.167,0l0,-0.084c0,-0.023 -0.008,-0.042 -0.024,-0.058c-0.017,-0.017 -0.037,-0.025 -0.06,-0.025c-0.023,0 -0.042,0.008 -0.058,0.024c-0.017,0.017 -0.025,0.036 -0.025,0.059l0,0.084Z" style="fill:#fff;fill-rule:nonzero;"/></g><g transform="matrix(12,0,0,12,367.935,422.005)"><rect x="0.083" y="-0.75" width="0.167" height="0.75" style="fill:#fff;fill-rule:nonzero;"/></g><g transform="matrix(12,0,0,12,339.927,432.475)"><path d="M0.083,-0l0,-0.75l0.334,0c0.045,0 0.084,0.017 0.117,0.049c0.033,0.033 0.049,0.073 0.049,0.118l-0,0.083c-0,0.045 -0.016,0.084 -0.049,0.117c-0.033,0.033 -0.072,0.05 -0.117,0.05l-0.167,-0l0,0.333l-0.167,-0Zm0.167,-0.417l0.083,-0c0.023,-0 0.043,-0.008 0.059,-0.025c0.017,-0.016 0.025,-0.035 0.025,-0.058l-0,-0.083c-0,-0.023 -0.008,-0.043 -0.025,-0.059c-0.016,-0.017 -0.036,-0.025 -0.059,-0.025l-0.083,0l0,0.25Z" style="fill:#fff;fill-rule:nonzero;"/></g><g transform="matrix(12,0,0,12,347.931,432.475)"><path d="M0.25,-0l-0.167,-0l0,-0.583l0.167,0l0,0.166c0.007,-0.055 0.024,-0.097 0.051,-0.125c0.028,-0.027 0.067,-0.041 0.116,-0.041l0.083,0l0,0.166l-0.167,-0c-0.023,-0 -0.042,0.008 -0.058,0.024c-0.017,0.017 -0.025,0.037 -0.025,0.06l0,0.333Z" style="fill:#fff;fill-rule:nonzero;"/></g><g transform="matrix(12,0,0,12,353.931,432.475)"><path d="M0.25,-0.583l0.167,0c0.045,0 0.084,0.016 0.117,0.049c0.033,0.033 0.049,0.072 0.049,0.117l-0,0.25c-0,0.045 -0.016,0.084 -0.049,0.117c-0.033,0.033 -0.072,0.05 -0.117,0.05l-0.167,-0c-0.045,-0 -0.084,-0.016 -0.117,-0.049c-0.034,-0.033 -0.05,-0.072 -0.05,-0.118l0,-0.25c0,-0.045 0.016,-0.084 0.05,-0.117c0.033,-0.033 0.072,-0.049 0.117,-0.049Zm0,0.166l0,0.25c0,0.023 0.008,0.042 0.025,0.059c0.016,0.017 0.035,0.025 0.058,0.025c0.023,-0 0.043,-0.008 0.059,-0.025c0.017,-0.017 0.025,-0.036 0.025,-0.059l-0,-0.25c-0,-0.023 -0.008,-0.042 -0.025,-0.059c-0.016,-0.016 -0.036,-0.024 -0.059,-0.024c-0.023,-0 -0.042,0.008 -0.058,0.024c-0.017,0.017 -0.025,0.036 -0.025,0.059Z" style="fill:#fff;fill-rule:nonzero;"/></g><g transform="matrix(12,0,0,12,361.935,432.475)"><path d="M0.083,-0.583l0.167,0l0,0.083c0,-0.028 0.007,-0.049 0.021,-0.063c0.014,-0.013 0.035,-0.02 0.062,-0.02l0.084,0c0.045,0 0.084,0.016 0.117,0.049c0.033,0.033 0.049,0.072 0.049,0.117l-0,0.25c-0,0.046 -0.016,0.085 -0.049,0.118c-0.033,0.033 -0.072,0.049 -0.117,0.049l-0.167,-0l0,0.167l-0.167,-0l0,-0.75Zm0.167,0.5l0.083,-0c0.023,-0 0.043,-0.008 0.059,-0.025c0.017,-0.016 0.025,-0.036 0.025,-0.059l-0,-0.25c-0,-0.023 -0.008,-0.042 -0.025,-0.059c-0.016,-0.016 -0.036,-0.024 -0.059,-0.024c-0.023,-0 -0.042,0.008 -0.058,0.024c-0.017,0.017 -0.025,0.036 -0.025,0.059l0,0.334Z" style="fill:#fff;fill-rule:nonzero;"/></g><g transform="matrix(12,0,0,12,369.939,432.475)"><path d="M0.583,-0.25l-0.333,0l0,0.083c0,0.023 0.008,0.042 0.025,0.059c0.016,0.017 0.035,0.025 0.058,0.025l0.084,-0c0.055,-0 0.083,-0.028 0.083,-0.084l0.083,-0c-0.013,0.111 -0.068,0.167 -0.166,0.167l-0.167,-0c-0.045,-0 -0.084,-0.016 -0.117,-0.049c-0.033,-0.033 -0.05,-0.072 -0.05,-0.118l0,-0.25c0,-0.045 0.017,-0.084 0.05,-0.117c0.033,-0.033 0.072,-0.049 0.117,-0.049l0.167,0c0.045,0 0.084,0.016 0.117,0.049c0.033,0.033 0.049,0.072 0.049,0.117l0,0.167Zm-0.333,-0.083l0.167,0l0,-0.084c0,-0.023 -0.008,-0.042 -0.024,-0.058c-0.017,-0.017 -0.037,-0.025 -0.06,-0.025c-0.023,0 -0.042,0.008 -0.058,0.024c-0.017,0.017 -0.025,0.036 -0.025,0.059l0,0.084Z" style="fill:#fff;fill-rule:nonzero;"/></g><g transform="matrix(12,0,0,12,377.943,432.475)"><path d="M0.25,-0l-0.167,-0l0,-0.583l0.167,0l0,0.166c0.007,-0.055 0.024,-0.097 0.051,-0.125c0.028,-0.027 0.067,-0.041 0.116,-0.041l0.083,0l0,0.166l-0.167,-0c-0.023,-0 -0.042,0.008 -0.058,0.024c-0.017,0.017 -0.025,0.037 -0.025,0.06l0,0.333Z" style="fill:#fff;fill-rule:nonzero;"/></g><g transform="matrix(12,0,0,12,383.943,432.475)"><path d="M0.167,-0.75l0.166,0l0,0.167l0.084,0l-0,0.083l-0.084,-0l0,0.333c0,0.027 0.009,0.048 0.027,0.062c0.018,0.015 0.034,0.022 0.049,0.022l0.008,-0l-0,0.083l-0.084,-0c-0.045,-0 -0.084,-0.016 -0.117,-0.049c-0.033,-0.033 -0.049,-0.072 -0.049,-0.118l-0,-0.333l-0.084,-0l-0,-0.083l0.084,0l-0,-0.167Z" style="fill:#fff;fill-rule:nonzero;"/></g><g transform="matrix(12,0,0,12,389.943,432.475)"><path d="M0.083,-0.667l0,-0.083l0.167,0l0,0.083l-0.167,0Zm0,0.667l0,-0.583l0.167,0l0,0.583l-0.167,-0Z" style="fill:#fff;fill-rule:nonzero;"/></g><g transform="matrix(12,0,0,12,393.939,432.475)"><path d="M0.583,-0.25l-0.333,0l0,0.083c0,0.023 0.008,0.042 0.025,0.059c0.016,0.017 0.035,0.025 0.058,0.025l0.084,-0c0.055,-0 0.083,-0.028 0.083,-0.084l0.083,-0c-0.013,0.111 -0.068,0.167 -0.166,0.167l-0.167,-0c-0.045,-0 -0.084,-0.016 -0.117,-0.049c-0.033,-0.033 -0.05,-0.072 -0.05,-0.118l0,-0.25c0,-0.045 0.017,-0.084 0.05,-0.117c0.033,-0.033 0.072,-0.049 0.117,-0.049l0.167,0c0.045,0 0.084,0.016 0.117,0.049c0.033,0.033 0.049,0.072 0.049,0.117l0,0.167Zm-0.333,-0.083l0.167,0l0,-0.084c0,-0.023 -0.008,-0.042 -0.024,-0.058c-0.017,-0.017 -0.037,-0.025 -0.06,-0.025c-0.023,0 -0.042,0.008 -0.058,0.024c-0.017,0.017 -0.025,0.036 -0.025,0.059l0,0.084Z" style="fill:#fff;fill-rule:nonzero;"/></g><g transform="matrix(12,0,0,12,401.943,432.475)"><path d="M0.5,-0.417l-0.083,0c-0.007,-0.055 -0.034,-0.083 -0.079,-0.083c-0.029,0 -0.051,0.006 -0.066,0.018c-0.015,0.011 -0.022,0.028 -0.022,0.051c0,0.024 0.04,0.058 0.121,0.101c0.066,0.035 0.104,0.065 0.114,0.088c0.01,0.023 0.015,0.048 0.015,0.075c0,0.046 -0.016,0.085 -0.049,0.118c-0.033,0.033 -0.072,0.049 -0.118,0.049l-0.083,-0c-0.111,-0 -0.167,-0.056 -0.167,-0.167l0.084,-0c0.007,0.056 0.033,0.084 0.078,0.084c0.03,-0 0.052,-0.006 0.067,-0.018c0.015,-0.011 0.022,-0.029 0.022,-0.052c0,-0.023 -0.04,-0.057 -0.121,-0.1c-0.066,-0.035 -0.104,-0.065 -0.115,-0.088c-0.01,-0.023 -0.015,-0.048 -0.015,-0.075c-0,-0.046 0.016,-0.085 0.049,-0.118c0.034,-0.033 0.073,-0.049 0.118,-0.049l0.083,0c0.105,0 0.16,0.055 0.167,0.166Z" style="fill:#fff;fill-rule:nonzero;"/></g></g></svg>